{
    "asset": {
        "version": "2.0",
        "generator": "THREE.GLTFExporter"
    },
    "scenes": [
        {
            "name": "Scene",
            "nodes": [
                9
            ]
        }
    ],
    "scene": 0,
    "nodes": [
        {
            "name": "1_low_1",
            "extras": {
                "name": "1_low"
            },
            "mesh": 0
        },
        {
            "name": "1_low",
            "extras": {
                "name": "1_low"
            },
            "children": [
                0
            ]
        },
        {
            "name": "2_low_1",
            "extras": {
                "name": "2_low"
            },
            "mesh": 1
        },
        {
            "name": "2_low",
            "extras": {
                "name": "2_low"
            },
            "children": [
                2
            ]
        },
        {
            "name": "3_low_1",
            "extras": {
                "name": "3_low"
            },
            "mesh": 2
        },
        {
            "name": "3_low",
            "extras": {
                "name": "3_low"
            },
            "children": [
                4
            ]
        },
        {
            "name": "4_low_1",
            "extras": {
                "name": "4_low"
            },
            "mesh": 3
        },
        {
            "name": "4_low",
            "extras": {
                "name": "4_low"
            },
            "children": [
                6
            ]
        },
        {
            "name": "RootNode",
            "extras": {
                "name": "RootNode"
            },
            "children": [
                1,
                3,
                5,
                7
            ]
        },
        {
            "matrix": [
                1,
                0,
                0,
                0,
                0,
                1,
                0,
                0,
                0,
                0,
                1,
                0,
                0,
                -20.618141103521314,
                0,
                1
            ],
            "name": "bag4.gltf",
            "children": [
                8
            ]
        }
    ],
    "bufferViews": [
        {
            "buffer": 0,
            "byteOffset": 0,
            "byteLength": 38628,
            "target": 34962,
            "byteStride": 12
        },
        {
            "buffer": 0,
            "byteOffset": 38628,
            "byteLength": 38628,
            "target": 34962,
            "byteStride": 12
        },
        {
            "buffer": 0,
            "byteOffset": 77256,
            "byteLength": 51504,
            "target": 34962,
            "byteStride": 16
        },
        {
            "buffer": 0,
            "byteOffset": 128760,
            "byteLength": 25752,
            "target": 34962,
            "byteStride": 8
        },
        {
            "buffer": 0,
            "byteOffset": 154512,
            "byteLength": 70848,
            "target": 34963
        },
        {
            "buffer": 0,
            "byteOffset": 225360,
            "byteLength": 6936,
            "target": 34962,
            "byteStride": 12
        },
        {
            "buffer": 0,
            "byteOffset": 232296,
            "byteLength": 6936,
            "target": 34962,
            "byteStride": 12
        },
        {
            "buffer": 0,
            "byteOffset": 239232,
            "byteLength": 9248,
            "target": 34962,
            "byteStride": 16
        },
        {
            "buffer": 0,
            "byteOffset": 248480,
            "byteLength": 4624,
            "target": 34962,
            "byteStride": 8
        },
        {
            "buffer": 0,
            "byteOffset": 253104,
            "byteLength": 6672,
            "target": 34963
        },
        {
            "buffer": 0,
            "byteOffset": 259776,
            "byteLength": 1392,
            "target": 34962,
            "byteStride": 12
        },
        {
            "buffer": 0,
            "byteOffset": 261168,
            "byteLength": 1392,
            "target": 34962,
            "byteStride": 12
        },
        {
            "buffer": 0,
            "byteOffset": 262560,
            "byteLength": 1856,
            "target": 34962,
            "byteStride": 16
        },
        {
            "buffer": 0,
            "byteOffset": 264416,
            "byteLength": 928,
            "target": 34962,
            "byteStride": 8
        },
        {
            "buffer": 0,
            "byteOffset": 265344,
            "byteLength": 1344,
            "target": 34963
        },
        {
            "buffer": 0,
            "byteOffset": 266688,
            "byteLength": 20880,
            "target": 34962,
            "byteStride": 12
        },
        {
            "buffer": 0,
            "byteOffset": 287568,
            "byteLength": 20880,
            "target": 34962,
            "byteStride": 12
        },
        {
            "buffer": 0,
            "byteOffset": 308448,
            "byteLength": 27840,
            "target": 34962,
            "byteStride": 16
        },
        {
            "buffer": 0,
            "byteOffset": 336288,
            "byteLength": 13920,
            "target": 34962,
            "byteStride": 8
        },
        {
            "buffer": 0,
            "byteOffset": 350208,
            "byteLength": 37368,
            "target": 34963
        },
        {
            "buffer": 1,
            "byteLength": 8977604
        },
        {
            "buffer": 2,
            "byteLength": 6723216
        },
        {
            "buffer": 3,
            "byteLength": 11791856
        }
    ],
    "buffers": [
        {
            "byteLength": 387576,
            "uri": "scene.bin"
        },
        {
            "uri": "image1.png",
            "byteLength": 8977604
        },
        {
            "uri": "image0.png",
            "byteLength": 6723216
        },
        {
            "uri": "image2.png",
            "byteLength": 11791856
        }
    ],
    "accessors": [
        {
            "bufferView": 0,
            "componentType": 5126,
            "count": 3219,
            "max": [
                0.9976229667663574,
                0.9996483325958252,
                0.9997899532318115
            ],
            "min": [
                -0.9990875124931335,
                -0.9995450377464294,
                -0.9999862909317017
            ],
            "type": "VEC3"
        },
        {
            "bufferView": 1,
            "componentType": 5126,
            "count": 3219,
            "max": [
                16.218021392822266,
                42.491641998291016,
                9.086544036865234
            ],
            "min": [
                -16.13835334777832,
                1.2444305419921875,
                -8.567280769348145
            ],
            "type": "VEC3"
        },
        {
            "bufferView": 2,
            "componentType": 5126,
            "count": 3219,
            "max": [
                0.9934772849082947,
                0.9949093461036682,
                0.9973919987678528,
                1
            ],
            "min": [
                -0.9999831914901733,
                -0.9989563226699829,
                -0.9781078696250916,
                1
            ],
            "type": "VEC4"
        },
        {
            "bufferView": 3,
            "componentType": 5126,
            "count": 3219,
            "max": [
                0.9984757304191589,
                0.9787817001342773
            ],
            "min": [
                0.013075463473796844,
                0.0037139058113098145
            ],
            "type": "VEC2"
        },
        {
            "bufferView": 4,
            "componentType": 5125,
            "count": 17712,
            "max": [
                3218
            ],
            "min": [
                0
            ],
            "type": "SCALAR"
        },
        {
            "bufferView": 5,
            "componentType": 5126,
            "count": 578,
            "max": [
                0.9859356880187988,
                0.9579675793647766,
                0.9999675154685974
            ],
            "min": [
                -0.9949302077293396,
                -0.9568440318107605,
                -0.9999756217002869
            ],
            "type": "VEC3"
        },
        {
            "bufferView": 6,
            "componentType": 5126,
            "count": 578,
            "max": [
                18.436628341674805,
                42.41596984863281,
                2.2204723358154297
            ],
            "min": [
                4.8188557624816895,
                20.34876251220703,
                0.8542762398719788
            ],
            "type": "VEC3"
        },
        {
            "bufferView": 7,
            "componentType": 5126,
            "count": 578,
            "max": [
                0.9998902082443237,
                0.9987198114395142,
                0.9999106526374817,
                1
            ],
            "min": [
                -0.9552356600761414,
                -0.9876571297645569,
                -0.9980045557022095,
                1
            ],
            "type": "VEC4"
        },
        {
            "bufferView": 8,
            "componentType": 5126,
            "count": 578,
            "max": [
                0.9965779781341553,
                0.9977396726608276
            ],
            "min": [
                0.003046685829758644,
                0.0027471184730529785
            ],
            "type": "VEC2"
        },
        {
            "bufferView": 9,
            "componentType": 5125,
            "count": 1668,
            "max": [
                577
            ],
            "min": [
                0
            ],
            "type": "SCALAR"
        },
        {
            "bufferView": 10,
            "componentType": 5126,
            "count": 116,
            "max": [
                0.9058908820152283,
                0.806845486164093,
                0.9993839263916016
            ],
            "min": [
                -0.9058911800384521,
                -0.7716642022132874,
                -0.9994927048683167
            ],
            "type": "VEC3"
        },
        {
            "bufferView": 11,
            "componentType": 5126,
            "count": 116,
            "max": [
                16.77057647705078,
                39.55005645751953,
                2.436598300933838
            ],
            "min": [
                9.00863265991211,
                22.80095672607422,
                0.6432849168777466
            ],
            "type": "VEC3"
        },
        {
            "bufferView": 12,
            "componentType": 5126,
            "count": 116,
            "max": [
                0.9265106916427612,
                0.3746888339519501,
                0.9812118411064148,
                1
            ],
            "min": [
                -0.9265921115875244,
                -0.3747169077396393,
                -0.9767172932624817,
                1
            ],
            "type": "VEC4"
        },
        {
            "bufferView": 13,
            "componentType": 5126,
            "count": 116,
            "max": [
                0.9759208559989929,
                0.9951332807540894
            ],
            "min": [
                0.001953125,
                0.01808983087539673
            ],
            "type": "VEC2"
        },
        {
            "bufferView": 14,
            "componentType": 5125,
            "count": 336,
            "max": [
                115
            ],
            "min": [
                0
            ],
            "type": "SCALAR"
        },
        {
            "bufferView": 15,
            "componentType": 5126,
            "count": 1740,
            "max": [
                0.9995191097259521,
                0.9956058263778687,
                0.999999463558197
            ],
            "min": [
                -0.9979320764541626,
                -0.999873697757721,
                -0.9999934434890747
            ],
            "type": "VEC3"
        },
        {
            "bufferView": 16,
            "componentType": 5126,
            "count": 1740,
            "max": [
                22.09492301940918,
                21.748348236083984,
                1.7529150247573853
            ],
            "min": [
                15.642404556274414,
                16.849241256713867,
                1.0601181983947754
            ],
            "type": "VEC3"
        },
        {
            "bufferView": 17,
            "componentType": 5126,
            "count": 1740,
            "max": [
                0.9998554587364197,
                0.8392854928970337,
                0.999158501625061,
                1
            ],
            "min": [
                -0.7256580591201782,
                -0.987511157989502,
                -0.9972578287124634,
                -1
            ],
            "type": "VEC4"
        },
        {
            "bufferView": 18,
            "componentType": 5126,
            "count": 1740,
            "max": [
                0.5036125183105469,
                0.9660364389419556
            ],
            "min": [
                0.033983245491981506,
                0.751056969165802
            ],
            "type": "VEC2"
        },
        {
            "bufferView": 19,
            "componentType": 5125,
            "count": 9342,
            "max": [
                1739
            ],
            "min": [
                0
            ],
            "type": "SCALAR"
        }
    ],
    "materials": [
        {
            "pbrMetallicRoughness": {
                "metallicFactor": 1,
                "roughnessFactor": 1,
                "metallicRoughnessTexture": {
                    "index": 0,
                    "channel": 0
                },
                "baseColorTexture": {
                    "index": 1,
                    "texCoord": 0
                }
            },
            "normalTexture": {
                "index": 2,
                "texCoord": 0
            },
            "occlusionTexture": {
                "index": 0,
                "texCoord": 0
            },
            "name": "Материал"
        }
    ],
    "textures": [
        {
            "sampler": 0,
            "source": 0,
            "name": "Материал_occlusionRoughnessMetallic.png"
        },
        {
            "sampler": 1,
            "source": 1,
            "name": "Материал_baseColor.png"
        },
        {
            "sampler": 2,
            "source": 2,
            "name": "Материал_normal.png"
        }
    ],
    "samplers": [
        {
            "magFilter": 9729,
            "minFilter": 9985,
            "wrapS": 10497,
            "wrapT": 10497
        },
        {
            "magFilter": 9729,
            "minFilter": 9985,
            "wrapS": 10497,
            "wrapT": 10497
        },
        {
            "magFilter": 9729,
            "minFilter": 9985,
            "wrapS": 10497,
            "wrapT": 10497
        }
    ],
    "images": [
        {
            "mimeType": "image/png",
            "bufferView": 21
        },
        {
            "mimeType": "image/png",
            "bufferView": 20
        },
        {
            "mimeType": "image/png",
            "bufferView": 22
        }
    ],
    "meshes": [
        {
            "primitives": [
                {
                    "mode": 4,
                    "attributes": {
                        "NORMAL": 0,
                        "POSITION": 1,
                        "TANGENT": 2,
                        "TEXCOORD_0": 3
                    },
                    "indices": 4,
                    "material": 0
                }
            ]
        },
        {
            "primitives": [
                {
                    "mode": 4,
                    "attributes": {
                        "NORMAL": 5,
                        "POSITION": 6,
                        "TANGENT": 7,
                        "TEXCOORD_0": 8
                    },
                    "indices": 9,
                    "material": 0
                }
            ]
        },
        {
            "primitives": [
                {
                    "mode": 4,
                    "attributes": {
                        "NORMAL": 10,
                        "POSITION": 11,
                        "TANGENT": 12,
                        "TEXCOORD_0": 13
                    },
                    "indices": 14,
                    "material": 0
                }
            ]
        },
        {
            "primitives": [
                {
                    "mode": 4,
                    "attributes": {
                        "NORMAL": 15,
                        "POSITION": 16,
                        "TANGENT": 17,
                        "TEXCOORD_0": 18
                    },
                    "indices": 19,
                    "material": 0
                }
            ]
        }
    ]
}