{
  "accessors": [
    {
      "bufferView": 0,
      "componentType": 5126,
      "count": 8446,
      "max": [
        1250.7008056640625,
        -34.76390838623047,
        745.1739501953125
      ],
      "min": [
        -1310.2010498046875,
        -2555.494140625,
        -383.79669189453125
      ],
      "type": "VEC3"
    },
    {
      "bufferView": 0,
      "byteOffset": 12,
      "componentType": 5126,
      "count": 8446,
      "type": "VEC3"
    },
    {
      "bufferView": 0,
      "byteOffset": 24,
      "componentType": 5126,
      "count": 8446,
      "type": "VEC2"
    },
    {
      "bufferView": 0,
      "byteOffset": 32,
      "componentType": 5126,
      "count": 8446,
      "type": "VEC2"
    },
    {
      "bufferView": 1,
      "componentType": 5125,
      "count": 47952,
      "type": "SCALAR"
    }
  ],
  "asset": {
    "version": "2.0"
  },
  "bufferViews": [
    {
      "buffer": 0,
      "byteLength": 337840,
      "byteStride": 40,
      "target": 34962
    },
    {
      "buffer": 0,
      "byteLength": 191808,
      "byteOffset": 337840,
      "target": 34963
    }
  ],
  "buffers": [
    {
      "byteLength": 529648,
      "uri": "bag2.bin"
    }
  ],
  "images": [
    {
      "uri": "BAG2_Normal.png"
    },
    {
      "uri": "bag2_matbasecolortexture.png"
    },
    {
      "uri": "bag2_matmetallicroughnesstex.png"
    }
  ],
  "materials": [
    {
      "name": "bag2_mat",
      "normalTexture": {
        "index": 0,
        "scale": -1.0
      },
      "pbrMetallicRoughness": {
        "baseColorFactor": [
          0.800000011920929,
          0.800000011920929,
          0.800000011920929,
          1.0
        ],
        "baseColorTexture": {
          "index": 1
        },
        "metallicFactor": 0.0,
        "metallicRoughnessTexture": {
          "index": 2
        },
        "roughnessFactor": 0.5678070187568665
      }
    }
  ],
  "meshes": [
    {
      "name": "1_LOW.002",
      "primitives": [
        {
          "attributes": {
            "NORMAL": 1,
            "POSITION": 0,
            "TEXCOORD_0": 2,
            "TEXCOORD_1": 3
          },
          "indices": 4,
          "material": 0,
          "mode": 4
        }
      ]
    }
  ],
  "nodes": [
    {
      "matrix": [
        0.001,
        0.0,
        0.0,
        0.0,
        0.0,
        0.001,
        0.0,
        0.0,
        0.0,
        0.0,
        0.001,
        0.0,
        0.0,
        0.0,
        0.0,
        1.0
      ],
      "mesh": 0,
      "name": "1_LOW.002"
    },
    {
      "children": [
        0
      ],
      "matrix": [
        0.15173429250717163,
        0.0,
        0.0,
        0.0,
        0.0,
        0.15173429250717163,
        -2.9543755886152212e-08,
        0.0,
        0.0,
        2.9543755886152212e-08,
        0.15173429250717163,
        0.0,
        -0.01286045265197754,
        0.38889389038085936,
        -5.2251853048801426e-08,
        1.0
      ]
    }
  ],
  "samplers": [
    {
      "magFilter": 9729,
      "minFilter": 9729,
      "wrapS": 10497,
      "wrapT": 10497
    },
    {
      "magFilter": 9729,
      "minFilter": 9729,
      "wrapS": 10497,
      "wrapT": 10497
    },
    {
      "magFilter": 9729,
      "minFilter": 9729,
      "wrapS": 10497,
      "wrapT": 10497
    }
  ],
  "scenes": [
    {
      "nodes": [
        1
      ]
    }
  ],
  "textures": [
    {
      "name": "texture_source0_sampler0",
      "sampler": 0,
      "source": 0
    },
    {
      "name": "texture_source1_sampler1",
      "sampler": 1,
      "source": 1
    },
    {
      "name": "texture_source2_sampler2",
      "sampler": 2,
      "source": 2
    }
  ]
}
